<mxfile host="65bd71144e">
    <diagram id="HIP3nbAZw_EuaXWnEj3U" name="Page-1">
        <mxGraphModel dx="584" dy="814" grid="1" gridSize="10" guides="1" tooltips="1" connect="1" arrows="1" fold="1" page="1" pageScale="1" pageWidth="850" pageHeight="1100" math="0" shadow="0">
            <root>
                <mxCell id="0"/>
                <mxCell id="1" parent="0"/>
                <mxCell id="7" value="http://ics2o.mths.ca" style="swimlane;whiteSpace=wrap;html=1;" parent="1" vertex="1">
                    <mxGeometry x="45" y="40" width="760" height="480" as="geometry"/>
                </mxCell>
                <mxCell id="8" value="Temperature" style="whiteSpace=wrap;html=1;" vertex="1" parent="7">
                    <mxGeometry x="40" y="50" width="680" height="60" as="geometry"/>
                </mxCell>
                <mxCell id="11" value="Fahrenheit" style="rounded=0;whiteSpace=wrap;html=1;" vertex="1" parent="7">
                    <mxGeometry x="40" y="210" width="190" height="40" as="geometry"/>
                </mxCell>
                <mxCell id="12" value="32" style="rounded=0;whiteSpace=wrap;html=1;" vertex="1" parent="7">
                    <mxGeometry x="40" y="150" width="190" height="60" as="geometry"/>
                </mxCell>
                <mxCell id="14" value="Celsius" style="rounded=0;whiteSpace=wrap;html=1;" vertex="1" parent="7">
                    <mxGeometry x="340" y="210" width="190" height="40" as="geometry"/>
                </mxCell>
                <mxCell id="15" value="0" style="rounded=0;whiteSpace=wrap;html=1;" vertex="1" parent="7">
                    <mxGeometry x="340" y="150" width="190" height="60" as="geometry"/>
                </mxCell>
                <mxCell id="19" value="Formula" style="rounded=1;whiteSpace=wrap;html=1;fontSize=12;" vertex="1" parent="7">
                    <mxGeometry x="40" y="300" width="100" height="50" as="geometry"/>
                </mxCell>
                <mxCell id="20" value="(32°F - 32) x 5/9 = 0°C" style="text;html=1;align=center;verticalAlign=middle;resizable=0;points=[];autosize=1;strokeColor=none;fillColor=none;fontSize=12;" vertex="1" parent="7">
                    <mxGeometry x="155" y="310" width="140" height="30" as="geometry"/>
                </mxCell>
                <mxCell id="17" value="=" style="text;html=1;align=center;verticalAlign=middle;resizable=0;points=[];autosize=1;strokeColor=none;fillColor=none;fontSize=20;" vertex="1" parent="7">
                    <mxGeometry x="265" y="182" width="40" height="40" as="geometry"/>
                </mxCell>
            </root>
        </mxGraphModel>
    </diagram>
</mxfile>